/vscmnt/brussel_pixiu_data/_data_brussel/112/vsc11236/PredSimResults/SUBJ07mtu3D/worker4.mot
version=1
nRows=4
nColumns=50
inDegrees=yes
endheader
                time	         pelvis_tilt	         pelvis_list	     pelvis_rotation	           pelvis_tx	           pelvis_ty	           pelvis_tz	       hip_flexion_r	     hip_adduction_r	      hip_rotation_r	        knee_angle_r	       ankle_angle_r	         mtp_angle_r	       hip_flexion_l	     hip_adduction_l	      hip_rotation_l	        knee_angle_l	       ankle_angle_l	         mtp_angle_l	    lumbar_extension	      lumbar_bending	     lumbar_rotation	 ercspn_r/activation	 intobl_r/activation	 extobl_r/activation	    abd_r/activation	    add_r/activation	hamstrings_r/activation	bifemsh_r/activation	glut_max_r/activation	iliopsoas_r/activation	rect_fem_r/activation	  vasti_r/activation	gastroc_r/activation	 soleus_r/activation	tib_ant_r/activation	 ercspn_l/activation	 intobl_l/activation	 extobl_l/activation	    abd_l/activation	    add_l/activation	hamstrings_l/activation	bifemsh_l/activation	glut_max_l/activation	iliopsoas_l/activation	rect_fem_l/activation	  vasti_l/activation	gastroc_l/activation	 soleus_l/activation	tib_ant_l/activation	
          0.53349073	         -6.05527428	          0.53581244	         -7.19205637	          0.65085869	          0.84929716	          0.00850729	        -11.81152649	          0.33667355	          6.26235381	         -8.59547423	          8.73586848	         26.40924018	         33.36284577	         -1.68777579	         -3.43106766	        -10.93125093	          7.31029998	          0.25824062	         -9.02589295	          1.94652833	          0.80743510	          0.08311471	          0.01000001	          0.01000002	          0.04362586	          0.02137682	          0.01551712	          0.11279366	          0.03144699	          0.27846302	          0.03144679	          0.02103763	          0.11703234	          0.29108999	          0.01633985	          0.12911108	          0.17945775	          0.02023992	          0.03346536	          0.10179644	          0.04155796	          0.01000205	          0.06005468	          0.01662055	          0.02827673	          0.01387328	          0.01000002	          0.01000000	          0.23118163	
          0.54416054	         -6.09557804	          0.44641266	         -7.17139566	          0.66578102	          0.84780384	          0.00841011	        -12.07673355	          0.41865202	          5.84403428	         -9.90308706	          8.02104979	         27.92476162	         32.98942852	         -1.45381215	         -2.59366231	        -11.76826722	          6.99890233	          0.25460354	         -8.90850411	          1.59733262	          0.88631174	          0.12409476	          0.01000001	          0.01000003	          0.03703918	          0.03722933	          0.01317442	          0.09576395	          0.02669909	          0.28874787	          0.02669897	          0.02651135	          0.09936266	          0.27547284	          0.01387284	          0.11239670	          0.15813355	          0.01718407	          0.02841272	          0.12040095	          0.03528352	          0.01000037	          0.12009183	          0.01411117	          0.02400751	          0.01177871	          0.01633987	          0.01633992	          0.21421109	
          0.55483036	         -6.12325955	          0.35174686	         -7.10067137	          0.68094055	          0.84645955	          0.00826381	        -12.25497577	          0.51785404	          5.38260948	        -11.40869032	          7.18257441	         29.40204483	         32.56528008	         -1.25068846	         -1.75635403	        -12.81564687	          6.74835908	          0.24737517	         -8.77206806	          1.24030640	          0.96552127	          0.13324341	          0.01000001	          0.01000004	          0.03144696	          0.03556817	          0.01118591	          0.08130540	          0.02266803	          0.28748682	          0.02266795	          0.02669918	          0.08436077	          0.25482551	          0.01177831	          0.11521190	          0.14840935	          0.01458961	          0.07755978	          0.11926107	          0.03532689	          0.03703553	          0.14077540	          0.01198066	          0.02038286	          0.01000036	          0.01387287	          0.01387291	          0.24867761	
          0.56550017	         -6.14041953	          0.25095543	         -6.97864073	          0.69614492	          0.84539422	          0.00803846	        -12.25798229	          0.63885808	          4.88298717	        -13.24012890	          6.21636730	         30.79271588	         32.15621398	         -1.05150933	         -1.00390306	        -13.88213788	          6.41875064	          0.23483162	         -8.63901637	          0.88181942	          1.04275815	          0.15642619	          0.01000000	          0.01000003	          0.02669906	          0.04319707	          0.01675323	          0.06902982	          0.01924559	          0.29063922	          0.01924554	          0.02266812	          0.07162388	          0.23308451	          0.01000001	          0.12048347	          0.12600235	          0.01238685	          0.11179301	          0.13502371	          0.03627562	          0.03144396	          0.16040393	          0.01017183	          0.01730546	          0.05768327	          0.01177836	          0.01177837	          0.26728215	
